# xmcd
#
# Track frame offsets:
#	150
#	11202
#	22521
#	35388
#	46348
#	58560
#	68672
#	78496
#	89797
#	98199
#	106256
#	117812
#	129029
#	140630
#	155726
#	166296
#
# Disc length: 2391 seconds
#
# Revision: 1
# Processed by: cddbd v1.5.2PL0 Copyright (c) Steve Scherf et al.
# Submitted via: audiograbber 1.83.01
#
DISCID=c8095510
DTITLE=Various Artist - Country Legends CD12 Cowboy Boots
DYEAR=2005
DGENRE=Country
TTITLE0=Johnny Cash - Cry, Cry, Cry
TTITLE1=Charley Pride - Happiness Of Having You
TTITLE2=Frankie Laine - Granada
TTITLE3=Lynn Anderson - Heaven's Just A Sin Away
TTITLE4=Tina Turner - If It's Alright With You
TTITLE5=Jimmie C. Newman - A Fallen Star
TTITLE6=Anne Murray - It's All Over
TTITLE7=Patsy Cline - Hungry For Love
TTITLE8=Jim Reeves - Wind Up Doll
TTITLE9=Jerry Lee Lewis - Your Cheatin' Heart
TTITLE10=Webb Pierce - Slowly
TTITLE11=Dave Dudley - Cowboy Boots
TTITLE12=Barbara Fairchild - Cheating Is
TTITLE13=Willie Nelson - Face Of A Fighter
TTITLE14=Faron Young - If You Ain't Lovin'
TTITLE15=Billie Jo Spears - It Coulda Been Me
EXTD=
EXTT0=
EXTT1=
EXTT2=
EXTT3=
EXTT4=
EXTT5=
EXTT6=
EXTT7=
EXTT8=
EXTT9=
EXTT10=
EXTT11=
EXTT12=
EXTT13=
EXTT14=
EXTT15=
PLAYORDER=
